<?xml version="1.0" encoding="UTF-8"?>
<svg id="Layer_2" data-name="Layer 2" xmlns="http://www.w3.org/2000/svg" viewBox="0 0 69.71 22.99">
  <defs>
    <style>
      .cls-1 {
        fill: #ff1d25;
      }
    </style>
  </defs>
  <g id="Layer_1-2" data-name="Layer 1">
    <g>
      <path class="cls-1" d="M24.3.34h0c13.86,0,25.12,11.25,25.12,25.12h0c-13.86,0-25.12-11.25-25.12-25.12h0Z" transform="translate(1.67 29.84) rotate(-45)"/>
      <path d="M36.62,18.52h0c-3.2-3.11-3.2-8.14,0-11.24h0s0,0,0,0c3.2,3.1,3.2,8.14,0,11.24h0Z"/>
    </g>
    <g>
      <g>
        <path class="cls-1" d="M54.65,16.73h0c3.12,0,5.65,2.53,5.65,5.65h0c-3.12,0-5.65-2.53-5.65-5.65h0Z" transform="translate(3.01 46.37) rotate(-45)"/>
        <path d="M57.42,20.82h0c-.72-.7-.72-1.83,0-2.53h0s0,0,0,0c.72.7.72,1.83,0,2.53h0Z"/>
      </g>
      <g>
        <path class="cls-1" d="M26.88-.53h0c3.12,0,5.65,2.53,5.65,5.65h0c-3.12,0-5.65-2.53-5.65-5.65h0Z" transform="translate(7.08 21.68) rotate(-45)"/>
        <path d="M29.65,3.55h0c-.72-.7-.72-1.83,0-2.53h0s0,0,0,0c.72.7.72,1.83,0,2.53h0Z"/>
      </g>
      <g>
        <path class="cls-1" d="M62.89,6.52h0c3.12,0,5.65,2.53,5.65,5.65h0c-3.12,0-5.65-2.53-5.65-5.65h0Z" transform="translate(12.64 49.2) rotate(-45)"/>
        <path d="M65.66,10.6h0c-.72-.7-.72-1.83,0-2.53h0s0,0,0,0c.72.7.72,1.83,0,2.53h0Z"/>
      </g>
      <g>
        <path class="cls-1" d="M2.39,4.51h0c6.36,0,11.52,5.16,11.52,11.52h0c-6.36,0-11.52-5.16-11.52-11.52h0Z" transform="translate(-4.87 8.77) rotate(-45)"/>
        <path d="M8.04,12.84h0c-1.47-1.42-1.47-3.73,0-5.16h0s0,0,0,0c1.47,1.42,1.47,3.73,0,5.16h0Z"/>
      </g>
      <g>
        <path class="cls-1" d="M50.26-2.51h0c6.69,0,12.13,5.43,12.13,12.13h0c-6.69,0-12.13-5.43-12.13-12.13h0Z" transform="translate(13.99 40.87) rotate(-45)"/>
        <path d="M56.21,6.27h0c-1.55-1.5-1.55-3.93,0-5.43h0s0,0,0,0c1.55,1.5,1.55,3.93,0,5.43h0Z"/>
      </g>
      <g>
        <path class="cls-1" d="M10.58,16.63h0c4.43,0,8.03,3.6,8.03,8.03h0c-4.43,0-8.03-3.6-8.03-8.03h0Z" transform="translate(-10.32 16.37) rotate(-45)"/>
        <path d="M14.52,22.44h0c-1.02-.99-1.02-2.6,0-3.6h0s0,0,0,0c1.02.99,1.02,2.6,0,3.6h0Z"/>
      </g>
    </g>
  </g>
</svg>