<?xml version="1.0" encoding="UTF-8"?>
<svg id="Layer_2" data-name="Layer 2" xmlns="http://www.w3.org/2000/svg" viewBox="0 0 21.03 28.8">
  <defs>
    <style>
      .cls-1 {
        fill: #ff1d25;
      }
    </style>
  </defs>
  <g id="Layer_1-2" data-name="Layer 1">
    <path class="cls-1" d="M.76,22.22c.22-.02.43-.02.65-.04-.14-1.34.12-1.52,1.6-1.19.07.36.14.73.21,1.15,1.31-.23,1.36-1.27,1.49-2.17.12-.85.12-1.76-.84-2.12-.45.32-.82.58-1.19.84-.18-.44-.37-.89-.59-1.42-.13.1-.27.23-.42.35-.27.2-.55.4-.83.59-.1-.3-.37-.67-.28-.89.36-.89.84-1.74,1.33-2.72q-1.06-1.35.82-2.21c1.16-.53,1.37-.92.8-2.12-.52-1.11-.4-1.83.78-2.38.55-.26,1.12-.68,1.45-1.18.95-1.45,2.31-1.96,3.93-1.98.65,0,.9-.27,1.14-.91.33-.9.79-1.86,1.48-2.48.72-.65,1.78-.91,2.69-1.35h.71c-.95.93-2.04,1.76-2.82,2.82-1.01,1.36-.37,2.45,1.35,2.58-.22-2.33.75-3.33,3.08-3.14-.09.1-.15.2-.24.26-1.41,1.07-1.61,1.58-.99,2.58,1.03,1.65,1.67,1.87,3.26,1.15.24-.11.5-.18.96-.33-1.13,1.49-2.05,2.79-.88,4.42.58-.14,1.11-.27,1.63-.4-1.56,1.38-1.55,3.15-1.54,4.88.02,2.91-1.17,4.97-3.9,6.16-1.76.78-2.4,1.88-1.75,4.08.11.37,2.09,3.38,4.2,3.66,0,0-8.53.2-9.07-.02-1.13-.45-1.49-1.31-1.46-2.44.04-1.41-.12-1.61-1.49-1.59-.6,0-1.2.25-1.78.43-.78.25-1.54.62-2.33.79-.71.16-1.4-.12-1.58-.9-.2-.86-.23-1.76-.34-2.67.38-.05.57-.08.76-.1ZM8.39,14.1c.49-.06.92-.63,1.17-.81,0-1.56-.92-2.5-1.99-2.48-.93.02-2.02.74-2,1.31.03.72,1.82,2.1,2.82,1.98Z"/>
  </g>
</svg>