<?xml version="1.0" encoding="UTF-8"?>
<svg id="Layer_2" data-name="Layer 2" xmlns="http://www.w3.org/2000/svg" viewBox="0 0 5.84 34.92">
  <defs>
    <style>
      .cls-1 {
        fill: #ff1d25;
      }
    </style>
  </defs>
  <g id="Layer_1-2" data-name="Layer 1">
    <path class="cls-1" d="M3.75,17.03v.84c.27,0,.52-.01.76,0,.8.05,1.29.48,1.3,1.27.03,1.84.03,3.68,0,5.52-.01.8-.53,1.26-1.34,1.3-.23.01-.46,0-.72,0v.83c.23,0,.47,0,.71,0,.82.02,1.34.45,1.35,1.26.03,1.84.03,3.68,0,5.52-.01.82-.55,1.29-1.38,1.3-1.05.02-2.1.02-3.16.01-.77,0-1.27-.51-1.27-1.28,0-1.83,0-3.65,0-5.48,0-.78.52-1.31,1.3-1.33.23,0,.46,0,.72,0v-.83c-.25,0-.5,0-.74,0-.76-.01-1.28-.52-1.28-1.28,0-1.83,0-3.65,0-5.48,0-.81.52-1.32,1.33-1.33.22,0,.43,0,.68,0v-.84c-.22,0-.45,0-.68,0-.82,0-1.34-.51-1.34-1.32C0,13.95,0,12.14,0,10.33c0-.82.51-1.32,1.32-1.33.23,0,.46,0,.71,0v-.84c-.26,0-.52,0-.77,0C.53,8.14,0,7.61,0,6.89c0-1.86,0-3.71,0-5.57C0,.64.49.11,1.13.08,2.21.04,3.29.01,4.37,0c.92,0,1.45.5,1.46,1.42.02,1.76.02,3.53,0,5.29,0,.89-.5,1.36-1.38,1.38-.21,0-.43,0-.68,0v.83c.2,0,.43,0,.65,0,.88.02,1.4.5,1.41,1.38.02,1.79.02,3.59,0,5.39,0,.84-.5,1.3-1.34,1.34-.23.01-.46,0-.74,0ZM3.87,6.38c.26.12.31-.08.31-.34,0-1.31,0-2.63,0-3.94,0-.35-.14-.46-.47-.45-.51.02-1.02.03-1.53.01-.45-.02-.6.18-.59.61.01,1.22,0,2.44,0,3.66,0,.14,0,.29.06.4.1.18.27.32.39.02.22-.54.69-.57,1.12-.49.26.05.47.33.7.51ZM3.91,28.37s-.09.02-.14.03c-.03.66-.53.7-.95.72-.22,0-.46-.22-.68-.35-.11-.07-.2-.17-.3-.26-.07.14-.21.28-.21.41-.02,1.31,0,2.62-.01,3.94,0,.32.14.49.48.48.6-.03,1.2-.04,1.79-.1.11-.01.3-.23.3-.35.02-1.36.02-2.72,0-4.07,0-.15-.17-.3-.26-.44ZM3.75,27.85c.53.07.96.29.97.87.03,1.41.02,2.82,0,4.22,0,.51-.36.83-.86.85-.62.02-1.24.03-1.85.02-.63,0-.9-.28-.9-.91,0-1.28,0-2.57,0-3.85,0-.8.14-.98.94-1.18,0-.07,0-.15,0-.22,0-.09-.02-.17-.04-.26-.11,0-.18-.01-.26-.01-1.1-.02-1.22.11-1.22,1.21,0,1.61,0,3.22,0,4.83,0,.77.23,1.01.99,1,1.02,0,2.04-.04,3.05-.07.43-.01.72-.3.72-.75.01-1.84,0-3.68,0-5.52,0-.43-.28-.73-.71-.77-.27-.03-.55,0-.83,0v.54ZM2.03,7.07c-.63-.09-.91-.32-.92-.82,0-1.44,0-2.88,0-4.32,0-.44.28-.72.72-.75.6-.04,1.2-.07,1.8-.08.79-.01,1.1.3,1.1,1.08,0,1.16,0,2.32,0,3.48,0,1-.07,1.09-.97,1.41v.52c.2,0,.37,0,.53,0,.09,0,.19,0,.28,0,.43-.06.71-.34.72-.77,0-1.84,0-3.68,0-5.52,0-.43-.27-.74-.67-.75-1.11,0-2.23,0-3.34.03-.51.02-.73.29-.75.81-.01.4,0,.8,0,1.21,0,1.39,0,2.79,0,4.18,0,.6.25.83.85.84.21,0,.42,0,.65,0v-.54ZM1.85,15.5c.05,0,.11-.01.16-.02.09-.65.57-.67,1.04-.72.46-.04.63.28.79.81.16-.23.33-.35.33-.48.02-1.39.02-2.78,0-4.17,0-.13-.18-.26-.32-.44-.27.65-.37.71-.83.77-.53.06-.91-.07-1.08-.68-.15.15-.32.3-.32.45-.02,1.34-.02,2.69,0,4.03,0,.15.16.3.24.46ZM1.92,24.53c.11-.24.16-.36.22-.46.21-.42.64-.32.98-.36.17-.02.38.19.56.32.11.08.2.19.3.29.07-.15.19-.31.19-.46.02-.99,0-1.98,0-2.97,0-.34.02-.68-.01-1.02-.01-.12-.14-.24-.22-.36-.08.08-.16.17-.25.24-.14.13-.27.32-.43.37-.63.21-.99.03-1.36-.69-.13.23-.29.38-.29.54-.02,1.33-.02,2.66,0,3.99,0,.16.17.32.31.57ZM3.75,25.44c.3,0,.55,0,.79,0,.45-.02.75-.31.75-.77,0-1.84,0-3.68,0-5.51,0-.44-.29-.73-.71-.76-.27-.02-.55,0-.83,0v.5c.88.28.98.42.98,1.36,0,1.11,0,2.22,0,3.34,0,.93-.12,1.09-.98,1.36v.5ZM3.74,16.52c.29,0,.53.01.77,0,.48-.03.77-.32.78-.8,0-1.82,0-3.65,0-5.47,0-.41-.21-.69-.6-.77-.31-.06-.63-.01-.94-.01v.51c.79.18.98.41.98,1.22,0,1.11,0,2.22,0,3.34,0,1.05-.03,1.09-.99,1.5v.48ZM2.03,9.54c-.15,0-.26-.02-.36-.02-.98-.01-1.14.14-1.14,1.12,0,.91,0,1.82,0,2.74,0,.77,0,1.55,0,2.32,0,.61.23.84.83.85.21,0,.42,0,.66,0v-.53c-.73-.12-.91-.34-.91-1.09,0-1.22,0-2.44,0-3.66,0-.87.1-1,.92-1.22v-.5ZM2.03,24.92c-.72-.1-.92-.33-.92-1,0-1.22,0-2.44,0-3.66,0-.96.05-1.03.91-1.3v-.5c-.2,0-.39,0-.57,0-.7,0-.92.21-.92.9,0,.62,0,1.24,0,1.86,0,1.14,0,2.29,0,3.43,0,.39.12.73.54.79.31.05.63,0,.96,0v-.52ZM2.63,6.45v4.24c.19-.01.35-.02.54-.04v-4.26c-.21.02-.36.04-.54.06ZM3.16,28.46v-4.26c-.23.06-.39.11-.56.16,0,1.25,0,2.49,0,3.72q0,.53.56.38ZM2.63,15.4v4.22c.2-.02.37-.04.55-.06v-4.27c-.22.04-.38.08-.55.11Z"/>
  </g>
</svg>