<?xml version="1.0" encoding="UTF-8"?>
<svg id="Layer_2" data-name="Layer 2" xmlns="http://www.w3.org/2000/svg" viewBox="0 0 43.71 24.11">
  <defs>
    <style>
      .cls-1 {
        fill: #ff1d25;
      }
    </style>
  </defs>
  <g id="Layer_1-2" data-name="Layer 1">
    <g>
      <g>
        <g>
          <g>
            <path class="cls-1" d="M27.02,14.41s6.86-3.31,4.99-8.62-4.5-3.94-4.5-3.94c0,0,10.76-5.15,14.62,2.8,3.86,7.94-1.65,15.93-1.65,15.93,0,0,.9-7.84-2.44-7.82s-4.8,3.09-4.8,3.09c0,0-.39-2.1-2.21-1.64s-3.16,1.37-3.16,1.37l-.85-1.16Z"/>
            <path d="M40.48,20.8s-.05,0-.08-.01c-.1-.04-.16-.14-.15-.24,0-.05.58-5.26-.99-7.01-.33-.37-.72-.55-1.2-.55h-.01c-3.15.02-4.57,2.92-4.59,2.95-.04.09-.14.14-.24.13-.1-.01-.18-.09-.2-.19,0,0-.18-.92-.81-1.32-.31-.2-.68-.24-1.11-.13-1.76.45-3.08,1.32-3.09,1.33-.1.07-.24.05-.32-.06l-.85-1.16c-.04-.06-.05-.13-.04-.19.02-.07.06-.12.12-.15.07-.03,6.66-3.29,4.87-8.34-.92-2.59-2-3.49-2.74-3.79-.71-.28-1.26-.09-1.4-.03-.02.01-.04.02-.04.02-.11.05-.25,0-.31-.11s-.01-.25.1-.31c0,0,.02-.01.05-.03.78-.36,11.1-4.86,14.88,2.93,3.87,7.97-1.61,16.08-1.67,16.16-.04.06-.12.1-.19.1ZM38.05,12.52c.61,0,1.13.24,1.55.7,1.28,1.43,1.28,4.73,1.19,6.39,1.25-2.23,4.17-8.6,1.13-14.86C38.99-1.28,31.85.49,28.91,1.54c.1.03.19.06.3.1,1.22.48,2.23,1.85,3.02,4.07,1.72,4.85-3.63,8.11-4.86,8.78l.56.77c.44-.27,1.59-.91,3.05-1.28.56-.14,1.06-.08,1.48.19.44.28.71.74.85,1.1.58-.89,2.11-2.73,4.73-2.75h.01Z"/>
          </g>
          <path d="M40.48,20.8s-.04,0-.05,0c-.12-.03-.2-.15-.17-.28.02-.1,2.23-9.59-.99-15.12-1.76-3.03-5.28-3.69-8-3.7,1.25.21,2.56.66,3.47,1.56.94.93,1.33,2.21,1.14,3.8-.74,6.27-2.37,8.8-2.44,8.9-.07.11-.21.14-.32.07-.11-.07-.14-.21-.07-.32.02-.02,1.64-2.55,2.36-8.7.17-1.44-.17-2.59-1-3.42-2.13-2.1-6.82-1.52-6.87-1.51-.13.02-.24-.07-.26-.19-.02-.12.05-.24.17-.27.09-.02,8.94-2.08,12.21,3.54,3.31,5.69,1.13,15.06,1.04,15.46-.03.11-.12.18-.23.18Z"/>
        </g>
        <g>
          <g>
            <path class="cls-1" d="M16.69,14.41s-6.86-3.31-4.99-8.62,4.5-3.94,4.5-3.94c0,0-10.76-5.15-14.62,2.8s1.65,15.93,1.65,15.93c0,0-.9-7.84,2.44-7.82s4.8,3.09,4.8,3.09c0,0,.39-2.1,2.21-1.64s3.16,1.37,3.16,1.37l.85-1.16Z"/>
            <path d="M3.24,20.8c-.07,0-.15-.04-.19-.1-.06-.08-5.54-8.18-1.67-16.16C5.16-3.24,15.47,1.26,16.26,1.62c.03.01.05.02.05.03.11.06.16.2.1.31-.06.11-.2.16-.31.11,0,0-.02,0-.04-.02-.15-.06-.69-.25-1.4.03-.74.3-1.82,1.2-2.74,3.79-1.79,5.05,4.8,8.3,4.87,8.34.06.03.11.09.12.15.02.07,0,.14-.04.19l-.85,1.16c-.07.1-.21.13-.32.06-.01,0-1.34-.89-3.09-1.33-.43-.11-.81-.07-1.11.13-.63.4-.81,1.32-.81,1.32-.02.1-.1.17-.2.19-.1.01-.2-.04-.24-.13-.01-.03-1.44-2.94-4.59-2.95-.5,0-.88.18-1.21.55-1.57,1.75-1,6.96-.99,7.01.01.11-.05.21-.15.24-.03,0-.05.01-.08.01ZM9.11.46C6.34.46,3.42,1.41,1.8,4.75c-3.04,6.26-.12,12.63,1.13,14.86-.09-1.66-.09-4.96,1.19-6.39.42-.47.94-.7,1.55-.7h.01c2.62.02,4.15,1.86,4.73,2.75.15-.36.41-.82.85-1.1.42-.27.92-.33,1.48-.19,1.46.37,2.61,1.01,3.05,1.28l.56-.77c-1.23-.67-6.58-3.93-4.86-8.78.79-2.22,1.8-3.59,3.02-4.07.1-.04.2-.07.3-.1-1.31-.47-3.46-1.08-5.69-1.08Z"/>
          </g>
          <path d="M3.24,20.8c-.11,0-.2-.07-.23-.18-.09-.4-2.27-9.77,1.04-15.46C7.32-.45,16.17,1.6,16.26,1.62c.12.03.2.15.17.27-.02.12-.13.21-.26.19-.05,0-4.74-.59-6.87,1.51-.84.83-1.17,1.98-1,3.42.73,6.15,2.35,8.68,2.36,8.7.07.11.04.25-.07.32-.11.07-.25.04-.32-.07-.07-.1-1.69-2.63-2.44-8.9-.19-1.59.19-2.87,1.14-3.81.91-.9,2.22-1.35,3.47-1.56-2.72,0-6.24.67-8,3.7-3.22,5.53-1.01,15.02-.99,15.12.03.12-.05.25-.17.28-.02,0-.04,0-.05,0Z"/>
        </g>
      </g>
      <g>
        <g>
          <ellipse class="cls-1" cx="21.86" cy="16.75" rx="7.35" ry="7.12"/>
          <path d="M21.86,24.11c-4.18,0-7.59-3.3-7.59-7.36s3.4-7.36,7.59-7.36,7.59,3.3,7.59,7.36-3.4,7.36-7.59,7.36ZM21.86,9.86c-3.93,0-7.12,3.09-7.12,6.89s3.2,6.89,7.12,6.89,7.12-3.09,7.12-6.89-3.19-6.89-7.12-6.89Z"/>
        </g>
        <g>
          <path d="M21.86,21.45h0c-2.68-2.6-2.68-6.8,0-9.4h0s0,0,0,0c2.68,2.6,2.68,6.8,0,9.4h0Z"/>
          <path d="M21.86,21.78l-.16-.16c-1.34-1.3-2.08-3.03-2.08-4.87s.74-3.57,2.08-4.87l.16-.16.16.16c1.34,1.3,2.08,3.03,2.08,4.87s-.74,3.57-2.08,4.87l-.16.16ZM21.86,12.38c-1.15,1.19-1.78,2.73-1.78,4.37s.63,3.18,1.78,4.37c1.15-1.19,1.78-2.73,1.78-4.37s-.63-3.18-1.78-4.37Z"/>
        </g>
      </g>
    </g>
  </g>
</svg>