<?xml version="1.0" encoding="UTF-8"?>
<svg id="Layer_2" data-name="Layer 2" xmlns="http://www.w3.org/2000/svg" viewBox="0 0 15.17 14.71">
  <defs>
    <style>
      .cls-1 {
        fill: #ff1d25;
      }
    </style>
  </defs>
  <g id="Layer_1-2" data-name="Layer 1">
    <g>
      <g>
        <ellipse class="cls-1" cx="7.59" cy="7.36" rx="7.35" ry="7.12"/>
        <path d="M7.59,14.71C3.4,14.71,0,11.41,0,7.36S3.4,0,7.59,0s7.59,3.3,7.59,7.36-3.4,7.36-7.59,7.36ZM7.59.46C3.66.46.46,3.56.46,7.36s3.2,6.89,7.12,6.89,7.12-3.09,7.12-6.89S11.51.46,7.59.46Z"/>
      </g>
      <g>
        <path d="M7.59,12.06h0c-2.68-2.6-2.68-6.8,0-9.4h0s0,0,0,0c2.68,2.6,2.68,6.8,0,9.4h0Z"/>
        <path d="M7.59,12.38l-.16-.16c-1.34-1.3-2.08-3.03-2.08-4.87s.74-3.57,2.08-4.87l.16-.16.16.16c1.34,1.3,2.08,3.03,2.08,4.87s-.74,3.57-2.08,4.87l-.16.16ZM7.59,2.99c-1.15,1.19-1.78,2.73-1.78,4.37s.63,3.18,1.78,4.37c1.15-1.19,1.78-2.73,1.78-4.37s-.63-3.18-1.78-4.37Z"/>
      </g>
    </g>
  </g>
</svg>