<?xml version="1.0" encoding="UTF-8"?>
<svg id="Layer_2" data-name="Layer 2" xmlns="http://www.w3.org/2000/svg" viewBox="0 0 20.22 32.08">
  <defs>
    <style>
      .cls-1 {
        fill: #ff1d25;
      }
    </style>
  </defs>
  <g id="Layer_1-2" data-name="Layer 1">
    <path class="cls-1" d="M9.24.23c-.21,3.49-.67,6.27-3.12,9.29-1.89,2.33-2.61,5.78-3.31,8.85-.64,2.82-.57,5.8-2.34,8.32-.29.41-.29,1.03-.48,1.79,3.09-.6,3.17-3.26,4.46-5.33.43.96,1,1.74,1.12,2.59.42,2.8,2.52,4.35,4.36,6.07.39.36,1.27.2,1.93.29-.13-.61-.1-1.35-.44-1.79-.8-1.03-1.83-1.88-2.68-2.89-.42-.5-.65-1.17-1.2-2.21,5.78,3.67,7.75,3.7,8.75.08-2.75.68-5.43,1.05-6.88-2.4,2.31,1.52,3.91.56,5.09-1.26.48-.74.51-1.77.74-2.68-.24-.09-.48-.18-.72-.27-.8.72-1.6,1.43-2.39,2.14-3.55-2.1-2.46-5.38.91-9.07,1.68,1.61,3.44,3.08,3.6,5.73.11,1.87,1.4,2.77,3.57,2.83-.23-.68-.41-1.25-.62-1.8-.4-1.09-1.14-2.16-1.18-3.26-.12-3.59-1.22-6.69-3.63-9.37-.35-.39-.45-1.23-.33-1.79.42-1.94-.58,1.08.85-4.07l-6.07.23Z"/>
  </g>
</svg>