<?xml version="1.0" encoding="UTF-8"?>
<svg id="Layer_2" data-name="Layer 2" xmlns="http://www.w3.org/2000/svg" viewBox="0 0 64.43 64.28">
  <defs>
    <style>
      .cls-1 {
        fill: #ff1d25;
      }
    </style>
  </defs>
  <g id="Layer_1-2" data-name="Layer 1">
    <g>
      <path class="cls-1" d="M20.04,64.28c.24-15.12-2.54-38.7-4.99-41.71-1.89-2.33-2.61-5.78-3.31-8.85-.64-2.82-.57-5.8-2.34-8.32-.29-.41-.29-1.03-.48-1.79,3.09.6,3.17,3.26,4.46,5.33.43-.96,1-1.74,1.12-2.59.42-2.8,2.52-4.35,4.36-6.07.39-.36,1.27-.2,1.93-.29-.13.61-.1,1.35-.44,1.79-.8,1.03-1.83,1.88-2.68,2.89-.42.5-.65,1.17-1.2,2.21,5.78-3.67,7.75-3.7,8.75-.08-2.75-.68-5.43-1.05-6.88,2.4,2.31-1.52,3.91-.56,5.09,1.26.48.74.51,1.77.74,2.68-.24.09-.48.18-.72.27-.8-.72-1.6-1.43-2.39-2.14-3.55,2.1-2.46,5.38.91,9.07,1.68-1.61,3.44-3.08,3.6-5.73.11-1.87,1.4-2.77,3.57-2.83-.23.68-.41,1.25-.62,1.8-.4,1.09-1.14,2.16-1.18,3.26-.12,3.59-1.22,6.69-3.63,9.37-.35.39-.39,1.22-.33,1.79.53,4.91,6,22.02,5.76,36.26h-9.11Z"/>
      <path class="cls-1" d="M40.15,64.17c1.39-.98.64-.75,1.12-1.96.32-.79-.42-1.83-.98-2.45-2.49-2.75-5.09-5.41-7.69-8.07-.41-.42-.94-.77-1.48-.98-2.1-.81-2-2.64-1.97-4.34.04-2.04,1.19-3.66,3.12-4.42-.78,3.36-2.66,7.17,3.28,7.99.45-3.97-1.41-8.77,3.34-11.52,1.47.84.53,1.95.03,2.8-1.02,1.72-1.59,3.44-1.24,5.47.25,1.4.94,2.22,2.4,2.77.05-.88.27-1.63.1-2.28-.57-2.21,1.15-3.36,2.15-4.81.24-.35,1.04-.32,1.58-.46-.01.54.21,1.28-.07,1.6-2.52,2.96-.78,6.26-.76,9.4,0,.36,1.04.86,1.66,1.02.32.08,1.04-.35,1.17-.7.45-1.23.65-2.55,1.07-3.8.2-.59.69-1.09,1.04-1.63.49.47,1.21.87,1.41,1.44.24.69.19,1.57,0,2.3-.38,1.47-.82,2.95-1.42,4.35-2.77,6.39-1.63,6.53-1.4,8.27h-6.48Z"/>
      <path class="cls-1" d="M56.1,64.15c-.41-1.77-.81-21-1.22-22.74-.09-.39-.17-.78-.27-1.16-.08-.3,0-.51.22-.73,1.76-1.63,3.51-3.27,5.28-4.9.14-.13.33-.22.51-.28.99-.29,1.98-.57,2.97-.85.47-.13.57-.3.41-.76-.25-.73-.5-1.45-.77-2.24-.56.34-1.08.65-1.6.97-.05.03-.08.1-.09.16-.05.47-.4.59-.78.7-.57.16-1.14.36-1.71.53-.11.03-.22.05-.34.07-.02-.04-.05-.08-.07-.12.12-.1.23-.22.36-.3,1.44-.96,2.88-1.9,4.32-2.86.25-.16.47-.38.72-.53.37-.24.44-.56.36-.97-.33-1.54-.65-3.08-.97-4.63-.06-.28-.2-.43-.47-.51-.37-.11-.73-.24-1.16-.38.04.55.07,1.06.12,1.57.08.94.16,1.88.25,2.82.02.27-.06.48-.29.64-1.39.98-2.78,1.97-4.17,2.95-.12.09-.28.13-.41.2-.03-.04-.05-.08-.08-.12.09-.11.17-.22.26-.32,1.04-1.05,2.09-2.1,3.14-3.14.24-.24.35-.49.32-.83-.16-1.87-.3-3.74-.48-5.61-.02-.2-.17-.46-.34-.58-.87-.62-1.74-1.24-2.66-1.78-.54-.32-1.16-.15-1.73.04-.07.02-.14.15-.15.24-.04.43-.1.83.32,1.18.61.51,1.17,1.08,1.74,1.64.13.13.24.33.26.51.11,1.19.19,2.38.26,3.57,0,.17-.1.39-.23.5-1,.84-2.02,1.66-3.04,2.47-.09.08-.25.07-.38.11,0-.14-.03-.29.02-.41.4-.99.83-1.97,1.22-2.96.09-.23.11-.51.07-.75-.18-.96-.4-1.92-.62-2.88-.03-.13-.09-.26-.17-.36-.69-.8-1.36-1.62-2.08-2.39-.49-.53-1.18-.6-1.85-.61-.15,0-.34.27-.44.45-.33.6-.32.61.12,1.13.49.58,1,1.14,1.47,1.74.14.17.23.42.25.64.07.87.11,1.74.13,2.61,0,.2-.05.42-.14.6-.72,1.39-1.45,2.78-2.18,4.16-.08.14-.2.3-.35.36-.73.3-1.48.57-2.22.86-.4.16-.69.06-.9-.32-.41-.71-.85-1.4-1.24-2.12-.08-.15-.05-.42.02-.59.26-.66.56-1.3.85-1.94.26-.59-.03-1.08-.28-1.58-.04-.07-.25-.11-.36-.08-.6.18-1.14.41-1.45,1.05-.44.9-.97,1.76-1.44,2.65-.09.17-.12.43-.06.62.54,1.86,1.1,3.71,1.67,5.56.07.23.21.45.37.63,1.22,1.39,2.45,2.78,3.69,4.16.26.29.37.59.36.97-.03,2.11-.03,4.23-.04,6.34,0,.13,0,17.76,0,17.94l7.19-.03Z"/>
      <path class="cls-1" d="M8.34,64.15c.41-1.77.81-11,1.22-12.74.09-.39.17-.78.27-1.16.08-.3,0-.51-.22-.73-1.76-1.63-3.51-3.27-5.28-4.9-.14-.13-.33-.22-.51-.28-.99-.29-1.98-.57-2.97-.85-.47-.13-.57-.3-.41-.76.25-.73.5-1.45.77-2.24.56.34,1.08.65,1.6.97.05.03.08.1.09.16.05.47.4.59.78.7.57.16,1.14.36,1.71.53.11.03.22.05.34.07.02-.04.05-.08.07-.12-.12-.1-.23-.22-.36-.3-1.44-.96-2.88-1.9-4.32-2.86-.25-.16-.47-.38-.72-.53-.37-.24-.44-.56-.36-.97.33-1.54.65-3.08.97-4.63.06-.28.2-.43.47-.51.37-.11.73-.24,1.16-.38-.04.55-.07,1.06-.12,1.57-.08.94-.16,1.88-.25,2.82-.02.27.06.48.29.64,1.39.98,2.78,1.97,4.17,2.95.12.09.28.13.41.2.03-.04.05-.08.08-.12-.09-.11-.17-.22-.26-.32-1.04-1.05-2.09-2.1-3.14-3.14-.24-.24-.35-.49-.32-.83.16-1.87.3-3.74.48-5.61.02-.2.17-.46.34-.58.87-.62,1.74-1.24,2.66-1.78.54-.32,1.16-.15,1.73.04.07.02.14.15.15.24.04.43.1.83-.32,1.18-.61.51-1.17,1.08-1.74,1.64-.13.13-.24.33-.26.51-.11,1.19-.19,2.38-.26,3.57,0,.17.1.39.23.5,1,.84,2.02,1.66,3.04,2.47.09.08.25.07.38.11,0-.14.03-.29-.02-.41-.4-.99-.83-1.97-1.22-2.96-.09-.23-.11-.51-.07-.75.18-.96.4-1.92.62-2.88.03-.13.09-.26.17-.36.69-.8,1.36-1.62,2.08-2.39.49-.53,1.18-.6,1.85-.61.15,0,.34.27.44.45.33.6.32.61-.12,1.13-.49.58-1,1.14-1.47,1.74-.14.17-.23.42-.25.64-.07.87-.11,1.74-.13,2.61,0,.2.05.42.14.6.72,1.39,1.45,2.78,2.18,4.16.08.14.2.3.35.36.73.3,1.48.57,2.22.86.4.16.69.06.9-.32.41-.71.85-1.4,1.24-2.12.08-.15.05-.42-.02-.59-.26-.66-.56-1.3-.85-1.94-.26-.59.03-1.08.28-1.58.04-.07.25-.11.36-.08.6.18,1.14.41,1.45,1.05.44.9.97,1.76,1.44,2.65.09.17.12.43.06.62-.54,1.86-1.1,3.71-1.67,5.56-.07.23-.21.45-.37.63-1.22,1.39-2.45,2.78-3.69,4.16-.26.29-.37.59-.36.97.03,2.11.03,4.23.04,6.34,0,.13,0,7.76,0,7.94l-7.19-.03Z"/>
    </g>
  </g>
</svg>