<?xml version="1.0" encoding="UTF-8"?>
<svg id="Layer_2" data-name="Layer 2" xmlns="http://www.w3.org/2000/svg" viewBox="0 0 20.48 25.75">
  <defs>
    <style>
      .cls-1 {
        fill: #ff1d25;
      }
    </style>
  </defs>
  <g id="Layer_1-2" data-name="Layer 1">
    <path class="cls-1" d="M9.47,25.75c-1.39-.98-.64-.75-1.12-1.96-.32-.79.42-1.83.98-2.45,2.49-2.75,5.09-5.41,7.69-8.07.41-.42.94-.77,1.48-.98,2.1-.81,2-2.64,1.97-4.34-.04-2.04-1.19-3.66-3.12-4.42.78,3.36,2.66,7.17-3.28,7.99-.45-3.97,1.41-8.77-3.34-11.52-1.47.84-.53,1.95-.03,2.8,1.02,1.72,1.59,3.44,1.24,5.47-.25,1.4-.94,2.22-2.4,2.77-.05-.88-.27-1.63-.1-2.28.57-2.21-1.15-3.36-2.15-4.81-.24-.35-1.04-.32-1.58-.46.01.54-.21,1.28.07,1.6,2.52,2.96.78,6.26.76,9.4,0,.36-1.04.86-1.66,1.02-.32.08-1.04-.35-1.17-.7-.45-1.23-.65-2.55-1.07-3.8-.2-.59-.69-1.09-1.04-1.63-.49.47-1.21.87-1.41,1.44-.24.69-.19,1.57,0,2.3.38,1.47.82,2.95,1.42,4.35,2.77,6.39,1.63,6.53,1.4,8.27h6.48Z"/>
  </g>
</svg>