<?xml version="1.0" encoding="UTF-8"?>
<svg id="Layer_2" data-name="Layer 2" xmlns="http://www.w3.org/2000/svg" viewBox="0 0 20.53 20.53">
  <defs>
    <style>
      .cls-1 {
        stroke: #ff1d25;
        stroke-miterlimit: 10;
      }

      .cls-2 {
        fill: #ff1d25;
      }
    </style>
  </defs>
  <g id="Layer_1-2" data-name="Layer 1">
    <g>
      <circle class="cls-1" cx="10.26" cy="10.26" r="9.76"/>
      <g>
        <path class="cls-2" d="M11.65,16.06c-.1,0-.18-.08-.18-.18,0,0,0-.51,0-.65,0-.12-.04-.12-.08-.12h0s-.09,0-.09.12c0,.15,0,.29,0,.44v.2c0,.1-.08.18-.18.18h-.58c-.1,0-.18-.08-.18-.18v-.38c0-.09,0-.19,0-.28,0-.1-.05-.1-.08-.1h0s-.08,0-.09.1c0,.12,0,.25,0,.37v.29c0,.1-.08.18-.18.18h-.58c-.1,0-.18-.08-.18-.18v-.45c0-.08,0-.17,0-.25,0-.05-.05-.06-.08-.06-.04,0-.08.01-.08.07,0,.13,0,.26,0,.39v.31c0,.1-.08.18-.18.18h-.19s-.1,0-.14,0c-.18-.03-.3-.17-.32-.38-.01-.21-.07-1.01-.07-1.01-.02-.23-.18-.4-.4-.4-.07,0-.14.02-.21.05-.23.11-.44.16-.65.16-.1,0-.2-.01-.3-.04-.38-.09-.69-.34-.86-.68-.16-.32-.17-.69-.03-1.02.17-.38.16-.74-.04-1.13-.62-1.24-.69-2.63-.19-3.92.51-1.32,1.58-2.36,2.94-2.87.6-.22,1.22-.34,1.85-.34,2.42,0,4.53,1.67,5,3.97.23,1.11.09,2.17-.42,3.16-.2.4-.22.75-.04,1.12.22.47.1,1.03-.31,1.4-.24.22-.55.34-.89.34-.19,0-.38-.04-.55-.11-.09-.04-.21-.09-.32-.09-.21,0-.36.16-.38.37,0,0-.05.74-.07.97-.02.33-.16.45-.5.45h-.15ZM10.26,12.19c-.25,0-.43.11-.53.32-.09.19-.17.4-.26.65-.04.11-.02.23.04.32.07.1.18.17.32.18.05,0,.1,0,.15,0h.28s.28,0,.28,0c.05,0,.11,0,.16,0,.13,0,.24-.08.31-.18.06-.1.08-.21.05-.32-.08-.24-.16-.46-.26-.66-.1-.21-.28-.32-.53-.32v-.18.18ZM11.74,10.18c-.09,0-.18,0-.28,0-.27,0-.49.18-.56.44-.04.17-.02.36.07.62.16.46.64.99,1.49.99.04,0,.07,0,.11,0,.53-.03.97-.34,1.12-.8.11-.32.07-.63-.1-.87-.17-.24-.45-.38-.75-.38h-.06c-.08,0-.15,0-.23,0h-.35s-.48,0-.48,0ZM7.7,10.19c-.31,0-.57.12-.75.34-.17.21-.23.48-.17.76.1.47.54.94,1.21.94h.06c.83,0,1.45-.51,1.58-1.29.04-.22,0-.4-.13-.54-.12-.14-.3-.22-.5-.22h-.04c-.16,0-.31.01-.47.01-.12,0-.58,0-.7,0h-.1Z"/>
        <path d="M10.27,4.66c2.26,0,4.35,1.53,4.83,3.82.22,1.05.09,2.07-.4,3.04-.22.43-.25.84-.05,1.28.19.41.07.89-.26,1.19-.21.19-.49.29-.77.29-.16,0-.33-.03-.48-.1-.12-.05-.26-.1-.39-.1,0,0,0,0-.01,0-.31,0-.52.24-.54.54-.02.32-.05.65-.07.97-.02.23-.07.28-.32.28-.02,0-.04,0-.05,0-.03,0-.06,0-.1,0,0-.23,0-.44,0-.65,0-.19-.1-.29-.26-.3,0,0,0,0,0,0-.16,0-.26.11-.27.3,0,.21,0,.43,0,.65h-.58c0-.09,0-.17,0-.26,0-.13,0-.27,0-.4,0-.17-.11-.28-.26-.28h0c-.16,0-.26.11-.27.28,0,.18,0,.35,0,.53,0,.04,0,.08,0,.14h-.58c0-.12,0-.23,0-.35,0-.12,0-.24,0-.37-.01-.14-.12-.23-.26-.23,0,0-.01,0-.02,0-.14,0-.24.1-.25.24,0,.18,0,.37,0,.55,0,.05,0,.09,0,.14-.07,0-.13,0-.19,0-.04,0-.08,0-.11,0-.11-.02-.16-.1-.16-.21-.02-.34-.05-.67-.07-1.01-.02-.34-.28-.56-.58-.56-.09,0-.19.02-.29.07-.19.09-.38.14-.57.14-.08,0-.17,0-.26-.03-.66-.16-1.03-.84-.77-1.45.19-.44.17-.86-.04-1.28-1.26-2.51-.04-5.53,2.65-6.54.59-.22,1.19-.33,1.79-.33M8.51,10.01c-.23,0-.47,0-.7,0-.03,0-.07,0-.1,0-.74,0-1.24.61-1.09,1.32.12.57.64,1.09,1.38,1.09.02,0,.05,0,.07,0,.92,0,1.61-.57,1.75-1.44.1-.6-.33-.97-.8-.97-.02,0-.03,0-.05,0-.15,0-.31,0-.46,0M12.56,10.01c-.12,0-.25,0-.37,0h0c-.15,0-.31,0-.46,0-.09,0-.19,0-.28,0-.36,0-.65.24-.73.58-.06.25,0,.48.07.72.18.53.74,1.12,1.67,1.12.04,0,.08,0,.12,0,.59-.03,1.1-.38,1.28-.92.29-.85-.33-1.49-1.02-1.49-.02,0-.05,0-.07,0-.07,0-.14,0-.22,0M9.98,13.85c.09,0,.19,0,.28,0,.09,0,.19,0,.28,0,.06,0,.11,0,.17,0,.37-.03.63-.38.52-.73-.07-.23-.16-.46-.27-.68-.14-.28-.38-.42-.7-.42h0c-.32,0-.56.15-.7.42-.1.22-.19.44-.27.67-.12.35.14.71.52.74.05,0,.11,0,.16,0M10.27,4.29c-.65,0-1.3.12-1.91.35-1.4.53-2.51,1.61-3.04,2.98-.52,1.34-.45,2.78.2,4.07.17.34.18.64.04.98-.16.38-.15.81.03,1.18.19.39.55.67.98.77.11.03.23.04.34.04.24,0,.48-.06.73-.18.05-.02.09-.03.13-.03.12,0,.21.09.22.23l.03.41c.01.2.03.4.04.6.02.29.2.5.47.55.05,0,.11.01.17.01.03,0,.07,0,.1,0,.03,0,.06,0,.09,0,.11,0,.2-.05.27-.12.07.07.16.12.27.12h.58c.11,0,.2-.04.27-.12.07.07.16.12.27.12h.58c.1,0,.2-.04.26-.11.07.08.16.12.27.12h.06s.04,0,.04,0h.06c.43,0,.65-.2.68-.62.02-.23.03-.46.05-.69l.02-.28s.03-.2.19-.2h0c.06,0,.14.02.25.07.2.09.41.13.62.13.38,0,.74-.14,1.01-.39.46-.42.6-1.07.35-1.61-.15-.32-.14-.62.04-.96.53-1.03.67-2.13.43-3.28-.49-2.38-2.67-4.11-5.18-4.11h0ZM8.51,10.37c.16,0,.32,0,.48-.01h.03c.15,0,.28.06.36.15.08.1.11.23.08.39-.12.7-.65,1.14-1.39,1.14-.03,0-.05,0-.07,0-.57,0-.95-.4-1.03-.8-.05-.23,0-.45.13-.61.14-.17.36-.27.61-.27h.1c.12,0,.23,0,.35,0,.12,0,.24,0,.35,0h0ZM12.56,10.37c.08,0,.16,0,.24,0,.02,0,.03,0,.05,0,.24,0,.47.12.61.3.14.19.16.44.07.71-.13.39-.51.65-.96.68-.03,0-.07,0-.1,0-.76,0-1.19-.47-1.32-.87-.08-.22-.09-.38-.06-.52.04-.18.19-.29.38-.3.09,0,.18,0,.27,0h.23s.23,0,.23,0c0,0,.02,0,.03,0,.05,0,.1,0,.15,0,.06,0,.13,0,.19,0h0ZM9.98,13.49s-.09,0-.14,0c-.07,0-.14-.04-.18-.1-.02-.04-.05-.09-.02-.17.08-.24.16-.44.25-.62.07-.15.19-.22.37-.22.18,0,.3.07.37.22.09.19.18.4.25.63.02.07,0,.13-.02.16-.04.06-.1.09-.18.1-.05,0-.09,0-.14,0s-.09,0-.14,0c-.05,0-.1,0-.15,0-.05,0-.1,0-.14,0-.05,0-.09,0-.14,0h0Z"/>
      </g>
    </g>
  </g>
</svg>