<?xml version="1.0" encoding="UTF-8"?>
<svg id="Layer_2" data-name="Layer 2" xmlns="http://www.w3.org/2000/svg" viewBox="0 0 143.46 109.39">
  <defs>
    <style>
      .cls-1 {
        fill: #ff1d25;
      }
    </style>
  </defs>
  <g id="Layer_1-2" data-name="Layer 1">
    <g>
      <path class="cls-1" d="M13.72,105.75c.09-1.44,1.45-2.85,2.16-4.13.85-1.62-.76-3.45-1.06-5.14-.08-.34-.11-.69-.1-1.04-.14-.23-.29-.46-.42-.7-1.16-1.18-2.55-3.32-2.79-4.21-.41-1.37,1.53-2.23,2.53-1.41-.74-.74-1.32-1.54-1.21-2.5.1-.42.94-1.52,1.37-1.6.73-.03.93,1.1,1.2,1.73.17.39.65.99,1.04,1.6.1-.66.18-1.32.25-1.97-.96-.85-2.33-1.52-2.42-2.97-.21-2.02,1.7-1.63,2.97-.77.5-2.84,1.1-5.69,1.2-8.63.16-6.19-1.23-12.26-3.86-17.83.08.01.17.02.24.01.22-.02.4-.08.56-.13.16-.06.28-.12.39-.17.21-.1.33-.16.33-.16,0,0-.13.02-.36.06-.11.02-.25.05-.41.07-.16.02-.33.04-.51.03-.18-.01-.34-.08-.46-.21-.06-.06-.11-.15-.15-.24l-.02-.04h0s0,0,0,0h0s-.03-.1-.03-.1c-.02-.06-.02-.1-.04-.15-.05-.22-.06-.47-.07-.72-.01-.25,0-.51,0-.76.01-.26.03-.51.06-.76.02-.13.04-.23.06-.36.03-.12.05-.25.08-.37.05-.24.1-.47.15-.69.05-.22.1-.42.15-.61.11-.37.21-.68.3-.89.09-.21.15-.33.15-.33,0,0-.02.02-.07.07-.04.05-.11.11-.18.21-.14.19-.33.47-.5.84-.17.37-.33.81-.47,1.29-.03.12-.07.24-.1.37-.04.12-.07.27-.09.4-.04.27-.07.54-.08.81-.01.52,0,1.05.13,1.55-.63,1.14-1.99,1.35-2.7.76,0,0-.01-.02-.04-.05-.03-.03-.06-.09-.09-.16-.03-.07-.06-.16-.09-.26-.02-.1-.05-.22-.06-.35-.01-.13-.02-.27-.02-.42,0-.15.01-.31.02-.48.03-.33.07-.69.13-1.04.03-.18.06-.35.09-.53.03-.17.07-.35.1-.51.07-.33.14-.64.2-.91.13-.54.22-.9.22-.9,0,0-.06.07-.16.21-.09.14-.22.34-.34.59-.13.25-.25.56-.36.89-.11.34-.2.7-.26,1.08-.03.19-.05.38-.06.56-.02.19-.01.37-.01.55,0,.24.04.47.08.68-1.01,1.48-2.66-.87-2.42-2.13-1.1,1.03-4.36,1.57-4.64-.41-.17-1.23.96-3.41,1.78-4.75-.55.11-.84-.19-.4-1.56.23-.71.75-1.33,1.31-1.89,0,0,.1-.07.26-.19.16-.12.39-.31.66-.54.13-.11.28-.24.43-.37.15-.13.31-.27.47-.42.16-.14.33-.28.5-.42.17-.12.39-.23.59-.39.1-.08.2-.16.3-.27.09-.11.18-.25.21-.42.02-.09.01-.18,0-.26,0-.05-.01-.06-.02-.09,0-.02-.02-.07-.03-.1-.04-.13-.1-.25-.17-.36-.28-.42-.64-.68-.96-.86-.32-.18-.61-.28-.81-.33-.2-.06-.32-.07-.32-.07,0,0,.1.06.27.18.17.12.41.28.67.5.26.22.55.49.73.83.04.08.08.17.1.25,0,.02.01.03.02.06,0,.02.01.06.01.07,0,.03,0,.06,0,.08-.02.11-.15.27-.31.4-.17.13-.36.27-.55.42-.19.18-.33.33-.5.5-.23.24-.44.48-.63.7-2.91,1.53-4.82,1.5-6.19-2.04-.6-1.42-1.1-2.61-.05-3.75s2.39-1.29,3-2.81c.56-1.64-.09-3.18.59-4.86.73-1.57,1.68-2.95,2.03-4.77.49-3.14.33-6.15,3.54-7.79,1.25-.67,2.52-.65,3.7-1.15,1.42-.6,2.09-2,2.85-3.16,1.97-2.93,3.69-5.47,6.51-7.37,2.64-1.68,5.08-2.85,7.92-4.06,2.72-1.15,5.59-.97,8.55-1.25,4.75-.34,7.86,1.42,11.43,4.23,1.29,1.1,3.23,2.23,4.93,3.56.5.18.99.36,1.44.58,3.4,1.77,6.33,4.72,8.8,7.58,4.1,4.41,7.42,10.26,8.55,16.21,1.39,7.23,2.42,16.58-2.93,22.76-2.48,2.73-5.41,5.37-8.89,6.7-3.1,1.18-5.79.91-8.48-.62.02-.13.05-.27.08-.41.11-.54.28-1.12.5-1.72.22-.6.49-1.22.73-1.9.24-.66.47-1.35.73-2.03.26-.68.54-1.37.87-2.03.33-.66.7-1.3,1.12-1.89.21-.3.43-.58.66-.85.13-.15.22-.27.34-.41.12-.13.24-.26.35-.39.47-.52.95-1.03,1.27-1.65.08-.15.14-.32.18-.49.02-.08.03-.18.04-.26,0-.08,0-.19,0-.27-.04-.34-.18-.64-.34-.88-.32-.5-.73-.85-1.09-1.13-.37-.28-.72-.49-1.01-.64-.29-.16-.53-.26-.7-.32-.17-.06-.26-.09-.26-.09,0,0,.35.14.9.5.27.18.59.41.93.71.33.3.69.67.96,1.13.13.23.23.49.25.75,0,.07,0,.12,0,.19,0,.08-.02.13-.04.2-.04.13-.09.26-.17.4-.3.52-.77,1.01-1.25,1.52-.12.13-.25.26-.37.39-.12.13-.25.29-.36.41-.24.28-.48.57-.7.88-.44.61-.83,1.27-1.16,1.96-.67,1.37-1.12,2.82-1.53,4.16-.2.66-.46,1.29-.66,1.91-.2.62-.35,1.22-.43,1.78-.08.56-.13,1.08-.13,1.54-.01.46,0,.86.03,1.19.02.33.06.58.08.76.02.17.03.27.03.27.49,3.14,1.7,6.97,3.61,9.51.79,1.2,1.83,3,2.14,4.4.25,1.57-.7,2.95-1.82,4.27-2.41,2.56-4.15,3.72-6.73,6.21-2.6,2.78-4.77,5.23-7.36,8.01-1.36,1.41-3.68,4.49-4.82,6.09-.83,1.33-1.57,2.9-3,3.79-2.45,1.46-6.14,3.3-9.1,2.6-1.54-.33-2.53-2-4.01-2.21-1.44-.09-.52.08-3.7,1.15-2.08.7-5.88.96-5.5-2.42ZM12.98,19.31c-.84-.34-2.43.19-3.04.73-2.25,1.93-2.1,5.92-3.01,8.4-.84,2.31.38,6.82,3.83,6.06,3.09-.61,2.4-8.84,5.68-8.69l.09-.46c.5-1.47-1.04-1.79-1.8-2.59-.86-1.03-.39-2.91-1.74-3.45ZM15.7,27.38c-1.46,1.18-1.93,5.99-2.45,7.74-.34.84-1.04,1.84-.69,2.67l.37.54c1.37.26,2.14.77,2.99-.85.48-1.18-.4-4.58.88-4.84.7,1.66.29,3.65.81,5.53.47,1.76,2.5,3.27,4.32,1.94-.92-1.84-2.23-15.82-6.23-12.73ZM24.69,48.95s0,.01.01.02c0,0,.01-.01.02-.02-.01,0-.02,0-.03,0ZM27.12,49.38c.34.76.45,1.65.34,2.49.33-.71.72-1.52,1.16-2.09-.5-.15-1-.28-1.5-.4ZM40.61,19.7c-1.43-2.15-2.29-2.55-4.95-2.34-2.02.09-3.81-.07-5.63,1.32-1.88,1.25-2.26,2.79-4.75,3.39-2.3.67-2.72,1.3-2.86,3.81-.16.83-.07,1.87.26,2.64l.79,2.27c1.14,2.27,1.18,5.62,4.77,5.17,1.33-.11,2.48-1.05,3.85-1.48,1.8-.61,2.77.05,4.65.02,4.36.14,5.52-5.25,5.79-8.27.2-2.38-.59-4.64-1.91-6.53ZM36.21,89.09c-.48-.77-1.04-1.77-1.35-2.13-.12-.15-.23-.3-.32-.45.11.32.21.72.36,1.18.23.67.39,1.37.59,2.06.24-.22.49-.45.74-.66ZM20.3,93.61c.42.66.9,1.26,1.41,1.84-.19-.34-.38-.67-.57-1-.19-.33-.38-.67-.54-1.01-.17-.34-.33-.68-.46-1.03-.13-.35-.23-.7-.24-1.04-.01-.17,0-.33.05-.48.02-.07.06-.14.08-.19,0-.03.05-.07.08-.11.01-.02.04-.05.07-.07.11-.1.26-.2.42-.28.16-.08.32-.16.49-.22.09-.03.16-.06.26-.08.08-.03.12-.03.19-.02.13,0,.29.08.44.16.16.09.31.19.48.3.12.07.25.15.41.21,0,.03-.01.06-.02.09,0,0,0-.01,0-.02v.02s0,0,0,0c-.03.16,0,.26,0,.37.02.11.05.21.08.31.06.2.13.38.2.57.15.37.33.72.53,1.06.18.32.38.63.59.93-.04.72.16,1.38.93,1.69.11.04.23.07.37.08-.14-.26-.31-.54-.47-.81,0,0,0,0,0,0-.17-.36-.33-.71-.5-1.06l-.5-1.05c-.17-.35-.33-.69-.49-1.04-.08-.17-.16-.35-.23-.52-.04-.09-.07-.17-.09-.25-.02-.08-.04-.17-.05-.19v-.02s0-.04,0-.06h0s.05-.16.05-.16c0-.02.03-.08.06-.11.03-.04.06-.08.09-.12.06-.08.14-.16.22-.23.09-.07.17-.13.27-.19.05-.03.1-.05.15-.08.05-.03.1-.05.15-.07.1-.05.21-.09.32-.12.11-.04.22-.06.34-.1l.34-.07.26-.04c1.14.13,1.5,1.2,1.86,2.57.23.97.33,2.01.72,3,.69-.34,1.34-.7,1.76-.88.04-.02.08-.04.13-.06-.94-1.47-2.23-4.11-1.27-5.05,1.84-1.73,3.15,2,3.58,3.66.44-.33.86-.69,1.27-1.05-.32-.85-.84-1.61-1.29-2.34-.99-1.45-1.45-2.55.4-3.24.84-.31,1.28-.28,1.56,0-.46-1.03-.13-1.84,1.29-2.51,1.03-.44,1.12-.66,1.68.22.31.52.54,1.26.8,1.89.24.57.45,1.15.66,1.72.09-.05.18-.11.28-.16,1.49-.79,3.55-1.6,5.27-2.67-.3-1.44-1.09-2.85-1.65-4.17-.37-.87-.89-1.67-.37-2.64.31-.6,1.67-1.55,2.39-1.39,1.51.33.97,4.89,1.32,6.91.54-.52.97-1.1,1.24-1.75,1.3-3.2-.22-7.49-.65-10.76-1.72-13.1-6.51-20.89-6.01-24.42.19.04.38.07.58.11.92.17,1.92.35,2.99.43.54.04,1.1.05,1.67.01.57-.04,1.16-.14,1.73-.35.57-.2,1.13-.51,1.6-.92.48-.41.86-.93,1.16-1.49.58-1.13.85-2.41.86-3.69,0-1.28-.3-2.54-.7-3.7-.41-1.17-.92-2.27-1.39-3.33-.24-.53-.47-1.05-.69-1.56-.22-.51-.41-1.01-.51-1.52-.1-.5-.09-1,.06-1.45.15-.45.4-.86.67-1.22.59-.72,1.06-1.44,1.52-2.04.45-.6.88-1.1,1.26-1.48.39-.38.72-.64.97-.8.12-.09.22-.13.28-.17.07-.04.1-.06.1-.06,0,0-.03.02-.1.05-.07.04-.17.08-.3.15-.26.14-.61.38-1.02.75-.41.36-.86.85-1.35,1.44-.24.29-.49.61-.76.94-.13.17-.26.34-.4.51l-.1.13-.03.03-.02.03-.06.06c-.08.09-.15.18-.23.27-.3.37-.58.79-.76,1.29-.18.5-.21,1.07-.12,1.62.1.55.28,1.08.49,1.61.21.53.44,1.05.67,1.58.47,1.07.96,2.16,1.35,3.3.38,1.14.65,2.34.64,3.55,0,1.2-.25,2.42-.78,3.47-.27.52-.61,1-1.04,1.37-.43.38-.92.66-1.45.85-1.05.38-2.18.43-3.23.38-1.05-.05-2.05-.2-2.97-.34-.46-.07-.9-.16-1.33-.19-.43-.03-.84-.02-1.22.02-.38.04-.74.11-1.05.24-.31.14-.54.38-.68.62-.02.04-.04.07-.05.11-.14.27-.22.61-.2,1.04,0,.18.03.35.09.52,0,0,0,.01,0,.01,0,0,0,0,0-.01.34.99,1.58,1.76,2.01,2.78.43,1.35.68,2.92-.03,4.21-.7,1.37-1.6.93-2.58.28-.05.32-.14.63-.26.93-1.11,2.99-3.58.12-1.68-1.66l.17-.9c-.38-.69-.49-1.39-1.14-2.05-.48-.41-1.07-.78-1.72-1.11.04,1.13-.74,4.86-1.46,5.29-.42.32-2.53-.04-2.97-.42-.58-.49-.62-1.15-.45-1.8-.11.12-.24.22-.37.31-.02,0-.13.05-.34.11-.22.06-.53.15-.91.18-.19.02-.39.02-.59-.01-.2-.03-.39-.11-.53-.24-.04-.03-.07-.07-.1-.11l-.02-.03-.02-.03-.05-.08c-.03-.05-.04-.08-.06-.13-.02-.05-.04-.1-.05-.15-.06-.21-.07-.45-.05-.69.02-.24.06-.49.11-.74.05-.25.1-.5.14-.74.05-.24.09-.47.12-.69.04-.22.08-.42.12-.61.08-.38.16-.69.23-.91.07-.22.12-.34.12-.34,0,0-.02.03-.06.07-.04.05-.09.12-.16.22-.13.19-.29.49-.43.86-.15.37-.28.82-.4,1.29-.06.24-.13.48-.18.73-.05.26-.11.52-.13.8-.02.28,0,.57.08.86.02.07.05.14.08.21.03.07.08.15.12.2l.06.08.03.05.04.04c.05.06.1.11.16.15.24.18.52.25.77.26.25.01.47-.03.67-.08.08-.02.15-.04.23-.07-.28,2.01-.77,4.03-.74,6.08.24,2.55.49,5.1,1.73,7.37,1.51,2.57,4.76,3.99,5.21,7.01.58,3.67-1.09,5.35-3.16,8.04-1.29,1.64-2.18,3.89-2.82,6.05h-.16s-.36-.01-.36-.01c-.12.01-.24.02-.36.04-.12.02-.24.04-.36.08-.06.02-.12.03-.18.06-.06.02-.12.04-.18.07-.12.05-.23.11-.34.18-.06.04-.12.09-.18.14,0,0,0,0-.01,0-.04.03-.07.07-.11.1,0,0,0,0,0,0-.05.05-.09.1-.13.15,0,0,0,.01-.01.02-.1-.04-.2-.1-.31-.17-.15-.1-.31-.22-.49-.32-.18-.1-.37-.21-.63-.24-.06,0-.13,0-.19,0-.03,0-.07,0-.1.02l-.08.02c-.09.02-.2.06-.29.09-.19.07-.38.14-.56.24-.18.1-.36.2-.53.36-.04.04-.08.08-.12.14-.03.04-.05.07-.09.13-.07.12-.11.22-.15.33-.06.22-.08.45-.06.66.04.42.17.81.33,1.17.16.36.36.7.56,1.03ZM14.11,92.03c.09.15.16.32.27.46.1.15.2.29.3.41.1.13.21.26.32.37.21.24.43.46.62.66.19.21.38.42.54.6.16.18.31.37.44.53.14.16.26.3.36.4.22.2.35.31.35.31,0,0-.1-.14-.28-.38-.08-.12-.17-.27-.28-.45-.11-.18-.22-.38-.37-.59-.14-.22-.3-.44-.48-.67-.18-.23-.37-.46-.57-.71-.2-.24-.38-.5-.55-.76-.09-.13-.15-.27-.23-.41-.04-.07-.05-.14-.08-.21l-.04-.11s-.02-.05-.02-.04v-.06s-.04-.09-.04-.12c0-.03,0-.05,0-.08v-.08s.02-.04.02-.06c.03-.07.1-.12.23-.17.26-.08.59-.1.91-.15.31-.05.55-.05.78.03.22.09.39.27.53.46.14.2.25.4.35.58.1.18.19.34.27.46.08.13.15.22.2.29.05.06.07.1.07.1,0,0-.02-.04-.05-.11-.03-.07-.07-.18-.13-.32-.05-.14-.11-.31-.18-.5-.07-.19-.15-.42-.27-.65-.12-.23-.31-.5-.62-.66-.3-.16-.69-.17-1-.14-.06,0-.13.01-.19.02-.35-.34-.74-.68-1.11-1.03.03.03.05.05.08.09.24.29.42.63.56.99-.11.02-.23.04-.35.07-.05.01-.1.03-.15.06-.05.02-.1.05-.15.09-.1.07-.18.17-.24.29-.02.06-.04.12-.05.18,0,.06-.01.12-.02.17v.17c.02.05.03.09.04.13v.06c.03.05.03.05.04.08l.05.13c.04.08.06.18.1.25Z"/>
      <path class="cls-1" d="M143.26,89.31l.2.02-.1.02s-.07-.01-.11-.01c0,0,0-.01,0-.02Z"/>
    </g>
  </g>
</svg>